<svg width="20" height="21" viewBox="0 0 20 21" fill="none" xmlns="http://www.w3.org/2000/svg">
<path d="M10 6.86364C7.99091 6.86364 6.36364 8.49091 6.36364 10.5C6.36364 12.5091 7.99091 14.1364 10 14.1364C12.0091 14.1364 13.6364 12.5091 13.6364 10.5C13.6364 8.49091 12.0091 6.86364 10 6.86364ZM18.1273 9.59091C17.9214 7.74738 17.0947 6.02867 15.783 4.71699C14.4713 3.40532 12.7526 2.57865 10.9091 2.37273V1.40909C10.9091 0.909091 10.5 0.5 10 0.5C9.5 0.5 9.09091 0.909091 9.09091 1.40909V2.37273C7.24738 2.57865 5.52867 3.40532 4.21699 4.71699C2.90532 6.02867 2.07865 7.74738 1.87273 9.59091H0.909091C0.409091 9.59091 0 10 0 10.5C0 11 0.409091 11.4091 0.909091 11.4091H1.87273C2.07865 13.2526 2.90532 14.9713 4.21699 16.283C5.52867 17.5947 7.24738 18.4214 9.09091 18.6273V19.5909C9.09091 20.0909 9.5 20.5 10 20.5C10.5 20.5 10.9091 20.0909 10.9091 19.5909V18.6273C12.7526 18.4214 14.4713 17.5947 15.783 16.283C17.0947 14.9713 17.9214 13.2526 18.1273 11.4091H19.0909C19.5909 11.4091 20 11 20 10.5C20 10 19.5909 9.59091 19.0909 9.59091H18.1273ZM10 16.8636C6.48182 16.8636 3.63636 14.0182 3.63636 10.5C3.63636 6.98182 6.48182 4.13636 10 4.13636C13.5182 4.13636 16.3636 6.98182 16.3636 10.5C16.3636 14.0182 13.5182 16.8636 10 16.8636Z" fill="#D9D9D9"/>
</svg>
