<svg width="28" height="28" viewBox="0 0 28 28" fill="none" xmlns="http://www.w3.org/2000/svg">
<path d="M11 15.26V4C11 2.93913 10.5786 1.92172 9.82843 1.17157C9.07828 0.421427 8.06087 0 7 0C5.93913 0 4.92172 0.421427 4.17157 1.17157C3.42143 1.92172 3 2.93913 3 4V15.26C1.77702 16.1116 0.857723 17.3312 0.375923 18.7415C-0.105877 20.1517 -0.125038 21.6789 0.32123 23.1008C0.767498 24.5226 1.6559 25.765 2.85714 26.647C4.05837 27.529 5.50974 28.0046 7 28.0046C8.49026 28.0046 9.94163 27.529 11.1429 26.647C12.3441 25.765 13.2325 24.5226 13.6788 23.1008C14.125 21.6789 14.1059 20.1517 13.6241 18.7415C13.1423 17.3312 12.223 16.1116 11 15.26ZM7 2C7.53043 2 8.03914 2.21071 8.41421 2.58579C8.78929 2.96086 9 3.46957 9 4V11H5V4C5 3.46957 5.21071 2.96086 5.58579 2.58579C5.96086 2.21071 6.46957 2 7 2ZM7 26C5.89937 26 4.82951 25.6367 3.95633 24.9667C3.08316 24.2967 2.45546 23.3572 2.1706 22.2941C1.88573 21.231 1.95961 20.1036 2.38077 19.0867C2.80194 18.0698 3.54685 17.2204 4.5 16.67L5 16.39V13H9V16.39L9.5 16.67C10.4531 17.2204 11.1981 18.0698 11.6192 19.0867C12.0404 20.1036 12.1143 21.231 11.8294 22.2941C11.5445 23.3572 10.9168 24.2967 10.0437 24.9667C9.17049 25.6367 8.10063 26 7 26ZM18 2H28V4H18V2ZM18 8H25V10H18V8ZM18 14H28V16H18V14ZM18 20H25V22H18V20Z" fill="black"/>
</svg>
