<svg width="16" height="20" viewBox="0 0 16 20" fill="none" xmlns="http://www.w3.org/2000/svg">
<path d="M10.5 15.5C10.9167 15.5 11.271 15.3543 11.563 15.063C11.855 14.7717 12.0007 14.4173 12 14C11.9993 13.5827 11.8537 13.2287 11.563 12.938C11.2723 12.6473 10.918 12.5013 10.5 12.5C10.082 12.4987 9.728 12.6447 9.438 12.938C9.148 13.2313 9.002 13.5853 9 14C8.998 14.4147 9.144 14.769 9.438 15.063C9.732 15.357 10.086 15.5027 10.5 15.5ZM4.75 14.75C4.95 14.95 5.18333 15.05 5.45 15.05C5.71667 15.05 5.95 14.95 6.15 14.75L11.25 9.65001C11.45 9.45001 11.55 9.21668 11.55 8.95001C11.55 8.68334 11.45 8.45001 11.25 8.25001C11.05 8.05001 10.8127 7.95001 10.538 7.95001C10.2633 7.95001 10.0257 8.05001 9.825 8.25001L4.75 13.325C4.55 13.525 4.45 13.7627 4.45 14.038C4.45 14.3133 4.55 14.5507 4.75 14.75ZM5.5 10.5C5.91667 10.5 6.271 10.3543 6.563 10.063C6.855 9.77168 7.00067 9.41734 7 9.00001C6.99933 8.58268 6.85367 8.22868 6.563 7.93801C6.27233 7.64734 5.918 7.50134 5.5 7.50001C5.082 7.49868 4.728 7.64468 4.438 7.93801C4.148 8.23134 4.002 8.58534 4 9.00001C3.998 9.41468 4.144 9.76901 4.438 10.063C4.732 10.357 5.086 10.5027 5.5 10.5ZM8 19.5C5.71667 19.5 3.81267 18.7167 2.288 17.15C0.763333 15.5833 0.000666667 13.6333 0 11.3C0 10.2667 0.233333 9.23334 0.7 8.20001C1.16667 7.16668 1.75 6.17501 2.45 5.22501C3.15 4.27501 3.90833 3.38334 4.725 2.55001C5.54167 1.71668 6.3 0.991678 7 0.375011C7.13333 0.241678 7.28767 0.146011 7.463 0.0880112C7.63833 0.0300112 7.81733 0.000677778 8 1.11111e-05C8.18267 -0.000655556 8.362 0.0286778 8.538 0.0880112C8.714 0.147344 8.868 0.243011 9 0.375011C9.7 0.991678 10.4583 1.71668 11.275 2.55001C12.0917 3.38334 12.85 4.27501 13.55 5.22501C14.25 6.17501 14.8333 7.16668 15.3 8.20001C15.7667 9.23334 16 10.2667 16 11.3C16 13.6333 15.2377 15.5833 13.713 17.15C12.1883 18.7167 10.284 19.5 8 19.5ZM8 17.5C9.73333 17.5 11.1667 16.9123 12.3 15.737C13.4333 14.5617 14 13.0827 14 11.3C14 10.0833 13.4957 8.70834 12.487 7.17501C11.4783 5.64168 9.98267 3.96668 8 2.15001C6.01667 3.96668 4.521 5.64168 3.513 7.17501C2.505 8.70834 2.00067 10.0833 2 11.3C2 13.0833 2.56667 14.5627 3.7 15.738C4.83333 16.9133 6.26667 17.5007 8 17.5Z" fill="black"/>
</svg>
