<svg width="20" height="23" viewBox="0 0 20 23" fill="none" xmlns="http://www.w3.org/2000/svg">
<path d="M10 0.380859C12.6522 0.380859 15.1957 1.43443 17.0711 3.30979C18.9464 5.18516 20 7.72869 20 10.3809C20 13.7964 18.1378 16.592 16.1756 18.5975C15.1952 19.5887 14.1255 20.4873 12.98 21.282L12.5067 21.6042L12.2844 21.752L11.8656 22.0186L11.4922 22.2464L11.03 22.5153C10.7163 22.6944 10.3613 22.7886 10 22.7886C9.63875 22.7886 9.28374 22.6944 8.97 22.5153L8.50778 22.2464L7.93 21.8909L7.71667 21.752L7.26111 21.4486C6.02537 20.6125 4.87434 19.6576 3.82444 18.5975C1.86222 16.5909 0 13.7964 0 10.3809C0 7.72869 1.05357 5.18516 2.92893 3.30979C4.8043 1.43443 7.34784 0.380859 10 0.380859ZM10 7.04753C9.56226 7.04753 9.12881 7.13375 8.72439 7.30126C8.31997 7.46878 7.95251 7.71431 7.64298 8.02384C7.33345 8.33337 7.08792 8.70083 6.9204 9.10525C6.75289 9.50967 6.66667 9.94312 6.66667 10.3809C6.66667 10.8186 6.75289 11.2521 6.9204 11.6565C7.08792 12.0609 7.33345 12.4284 7.64298 12.7379C7.95251 13.0474 8.31997 13.2929 8.72439 13.4605C9.12881 13.628 9.56226 13.7142 10 13.7142C10.8841 13.7142 11.7319 13.363 12.357 12.7379C12.9821 12.1128 13.3333 11.2649 13.3333 10.3809C13.3333 9.49681 12.9821 8.64896 12.357 8.02384C11.7319 7.39872 10.8841 7.04753 10 7.04753Z" fill="#D9D9D9"/>
</svg>
