<svg width="22" height="16" viewBox="0 0 22 16" fill="none" xmlns="http://www.w3.org/2000/svg">
<path d="M20.86 8.5C20.1378 7.6474 19.112 7.10941 18 7C18 5.05 17.32 3.4 15.96 2.04C14.6 0.68 12.95 0 11 0C9.42 0 8 0.47 6.75 1.43C5.5 2.39 4.67 3.62 4.25 5.15C3 5.43 1.96 6.08 1.17 7.1C0.38 8.12 0 9.28 0 10.58C0 12.09 0.54 13.38 1.61 14.43C2.69 15.5 4 16 5.5 16H17.5C18.75 16 19.81 15.56 20.69 14.69C21.56 13.81 22 12.75 22 11.5C22 10.35 21.62 9.35 20.86 8.5ZM19.27 13.27C18.79 13.76 18.2 14 17.5 14H5.5C4.53 14 3.71 13.66 3.03 13C2.34 12.29 2 11.47 2 10.5C2 9.53 2.34 8.71 3.03 8.03C3.71 7.34 4.53 7 5.5 7H6C6 5.62 6.5 4.44 7.46 3.46C8.44 2.5 9.62 2 11 2C12.38 2 13.56 2.5 14.54 3.46C15.5 4.44 16 5.62 16 7V9H17.5C18.2 9 18.79 9.24 19.27 9.73C19.75 10.22 20 10.8 20 11.5C20 12.2 19.76 12.79 19.27 13.27ZM7.03 6.45C7.03 5.67 7.67 5.03 8.45 5.03C9.23 5.03 9.87 5.67 9.87 6.45C9.87 7.23 9.23 7.87 8.45 7.87C7.67 7.87 7.03 7.23 7.03 6.45ZM14.97 11.55C14.97 12.33 14.33 12.97 13.55 12.97C12.77 12.97 12.13 12.33 12.13 11.55C12.13 10.77 12.77 10.13 13.55 10.13C14.33 10.13 14.97 10.77 14.97 11.55ZM13.8 5L15 6.2L8.2 13L7 11.8L13.8 5Z" fill="black"/>
</svg>
