<svg width="20" height="21" viewBox="0 0 20 21" fill="none" xmlns="http://www.w3.org/2000/svg">
<path d="M7.9825 0.498047C6.73314 0.498715 5.50135 0.792475 4.38616 1.35571C3.27096 1.91896 2.30345 2.73597 1.56139 3.74108C0.819333 4.7462 0.323425 5.91138 0.113525 7.14299C-0.0963756 8.37459 -0.0144141 9.63826 0.352822 10.8324C0.720058 12.0266 1.36233 13.118 2.228 14.0188C3.09368 14.9196 4.15862 15.6048 5.33723 16.0193C6.51585 16.4338 7.77526 16.5659 9.01424 16.4052C10.2532 16.2445 11.4372 15.7953 12.4711 15.0939L17.4069 20.0257C17.544 20.1728 17.7093 20.2908 17.893 20.3727C18.0767 20.4545 18.275 20.4985 18.4761 20.5021C18.6771 20.5056 18.8769 20.4686 19.0633 20.3933C19.2498 20.318 19.4192 20.2059 19.5614 20.0637C19.7036 19.9215 19.8157 19.7521 19.891 19.5656C19.9663 19.3792 20.0033 19.1795 19.9998 18.9784C19.9962 18.7773 19.9522 18.579 19.8704 18.3953C19.7885 18.2116 19.6705 18.0463 19.5234 17.9092L14.5915 12.9734C15.4075 11.7725 15.8806 10.372 15.9602 8.92236C16.0397 7.47273 15.7226 6.02884 15.043 4.74593C14.3633 3.46303 13.3468 2.38964 12.1028 1.64119C10.8588 0.892732 9.43431 0.497521 7.9825 0.498047ZM2.99077 8.48481C2.99077 7.16092 3.51668 5.89126 4.45281 4.95513C5.38894 4.019 6.65861 3.49308 7.9825 3.49308C9.30639 3.49308 10.5761 4.019 11.5122 4.95513C12.4483 5.89126 12.9742 7.16092 12.9742 8.48481C12.9742 9.8087 12.4483 11.0784 11.5122 12.0145C10.5761 12.9506 9.30639 13.4765 7.9825 13.4765C6.65861 13.4765 5.38894 12.9506 4.45281 12.0145C3.51668 11.0784 2.99077 9.8087 2.99077 8.48481Z" fill="#D9D9D9"/>
</svg>
