<svg width="21" height="20" viewBox="0 0 21 20" fill="none" xmlns="http://www.w3.org/2000/svg">
<path d="M3 5.99954H11.5C11.9644 6.00843 12.4222 5.88775 12.8218 5.65103C13.2215 5.41431 13.5473 5.07092 13.7627 4.65937C13.9782 4.24783 14.0747 3.7844 14.0414 3.32108C14.0082 2.85775 13.8465 2.41285 13.5745 2.03627C13.3026 1.6597 12.931 1.36635 12.5017 1.18912C12.0723 1.01189 11.602 0.95779 11.1436 1.03289C10.6852 1.108 10.2568 1.30933 9.90643 1.61432C9.55606 1.9193 9.29758 2.31587 9.16 2.75954M1 9.99954H16.5C16.9644 9.99066 17.4222 10.1113 17.8218 10.3481C18.2215 10.5848 18.5473 10.9282 18.7627 11.3397C18.9782 11.7513 19.0747 12.2147 19.0414 12.678C19.0082 13.1413 18.8465 13.5862 18.5745 13.9628C18.3026 14.3394 17.931 14.6327 17.5017 14.81C17.0723 14.9872 16.602 15.0413 16.1436 14.9662C15.6852 14.8911 15.2568 14.6898 14.9064 14.3848C14.5561 14.0798 14.2976 13.6832 14.16 13.2395M2 13.9995H7.5C7.96443 13.9907 8.42216 14.1113 8.82183 14.3481C9.22151 14.5848 9.54733 14.9282 9.76274 15.3397C9.97816 15.7513 10.0747 16.2147 10.0414 16.678C10.0082 17.1413 9.8465 17.5862 9.57453 17.9628C9.30256 18.3394 8.93105 18.6327 8.50167 18.81C8.07229 18.9872 7.60203 19.0413 7.14362 18.9662C6.68522 18.8911 6.2568 18.6898 5.90643 18.3848C5.55605 18.0798 5.29758 17.6832 5.16 17.2395" stroke="black" stroke-width="2" stroke-linecap="round" stroke-linejoin="round"/>
</svg>
